name C:/MyDriveSym/Projects/mobilecap/Data\Session20210903_0002\mocap\ForceDataProcessed\walking2_forces.mot
datacolumns 19
datarows 22
range 0.90700000 0.91750000
endheader 
time	R_ground_force_vx	R_ground_force_vy	R_ground_force_vz	R_ground_force_px	R_ground_force_py	R_ground_force_pz	R_ground_torque_x	R_ground_torque_y	R_ground_torque_z	L_ground_force_vx	L_ground_force_vy	L_ground_force_vz	L_ground_force_px	L_ground_force_py	L_ground_force_pz	L_ground_torque_x	L_ground_torque_y	L_ground_torque_z	
          0.90700000	          0.00000000	          0.00000000	          0.00000000	          1.30897200	          0.00000000	         -0.10043900	          0.00000000	          0.00000000	          0.00000000	         48.85180500	        536.82999600	         23.33374700	          0.95365300	          0.00600000	         -0.23717300	          0.00000000	          3.36002600	          0.00000000	
          0.90750000	          0.00000000	          0.00000000	          0.00000000	          1.31077100	          0.00000000	         -0.10040200	          0.00000000	          0.00000000	          0.00000000	         49.24657000	        537.55828500	         23.36641500	          0.95372400	          0.00600000	         -0.23717000	          0.00000000	          3.36035300	          0.00000000	
          0.90800000	          0.00000000	          0.00000000	          0.00000000	          1.31256900	          0.00000000	         -0.10036500	          0.00000000	          0.00000000	          0.00000000	         49.64148700	        538.28272700	         23.39888800	          0.95379500	          0.00600000	         -0.23716700	          0.00000000	          3.36054100	          0.00000000	
          0.90850000	          0.00000000	          0.00000000	          0.00000000	          1.31436800	          0.00000000	         -0.10032800	          0.00000000	          0.00000000	          0.00000000	         50.03653900	        539.00322300	         23.43116100	          0.95386600	          0.00600000	         -0.23716500	          0.00000000	          3.36059000	          0.00000000	
          0.90900000	          0.00000000	          0.00000000	          0.00000000	          1.31616600	          0.00000000	         -0.10029100	          0.00000000	          0.00000000	          0.00000000	         50.43171100	        539.71967300	         23.46322700	          0.95393800	          0.00600000	         -0.23716200	          0.00000000	          3.36050100	          0.00000000	
          0.90950000	          0.00000000	          0.00000000	          0.00000000	          1.31796400	          0.00000000	         -0.10025300	          0.00000000	          0.00000000	          0.00000000	         50.82698400	        540.43197900	         23.49508000	          0.95400900	          0.00600000	         -0.23716000	          0.00000000	          3.36027300	          0.00000000	
          0.91000000	          0.00000000	          0.00000000	          0.00000000	          1.31976300	          0.00000000	         -0.10021600	          0.00000000	          0.00000000	          0.00000000	         51.22234200	        541.14004000	         23.52671600	          0.95408000	          0.00600000	         -0.23715700	          0.00000000	          3.35990600	          0.00000000	
          0.91050000	          0.00000000	          0.00000000	          0.00000000	          1.32156100	          0.00000000	         -0.10017900	          0.00000000	          0.00000000	          0.00000000	         51.61776800	        541.84375700	         23.55812800	          0.95415100	          0.00600000	         -0.23715500	          0.00000000	          3.35940100	          0.00000000	
          0.91100000	          0.00000000	          0.00000000	          0.00000000	          1.32336000	          0.00000000	         -0.10014200	          0.00000000	          0.00000000	          0.00000000	         52.01324500	        542.54302900	         23.58930900	          0.95422200	          0.00600000	         -0.23715200	          0.00000000	          3.35875700	          0.00000000	
          0.91150000	          0.00000000	          0.00000000	          0.00000000	          1.32515800	          0.00000000	         -0.10010500	          0.00000000	          0.00000000	          0.00000000	         52.40875600	        543.23775600	         23.62025500	          0.95429300	          0.00600000	         -0.23715000	          0.00000000	          3.35797400	          0.00000000	
          0.91200000	          0.00000000	          0.00000000	          0.00000000	          1.32695600	          0.00000000	         -0.10006800	          0.00000000	          0.00000000	          0.00000000	         52.80428200	        543.92783600	         23.65095900	          0.95436400	          0.00600000	         -0.23714800	          0.00000000	          3.35705300	          0.00000000	
          0.91250000	          0.00000000	          0.00000000	          0.00000000	          1.32875500	          0.00000000	         -0.10003100	          0.00000000	          0.00000000	          0.00000000	         53.19980700	        544.61316800	         23.68141600	          0.95443500	          0.00600000	         -0.23714500	          0.00000000	          3.35599400	          0.00000000	
          0.91300000	          0.00000000	          0.00000000	          0.00000000	          1.33055300	          0.00000000	         -0.09999400	          0.00000000	          0.00000000	          0.00000000	         53.59531200	        545.29365100	         23.71161800	          0.95450600	          0.00600000	         -0.23714300	          0.00000000	          3.35479600	          0.00000000	
          0.91350000	          0.00000000	          0.00000000	          0.00000000	          1.33235100	          0.00000000	         -0.09995700	          0.00000000	          0.00000000	          0.00000000	         53.99078100	        545.96918300	         23.74156100	          0.95457600	          0.00600000	         -0.23714100	          0.00000000	          3.35346100	          0.00000000	
          0.91400000	          0.00000000	          0.00000000	          0.00000000	          1.33415000	          0.00000000	         -0.09992000	          0.00000000	          0.00000000	          0.00000000	         54.38619400	        546.63966100	         23.77123800	          0.95464700	          0.00600000	         -0.23713900	          0.00000000	          3.35198700	          0.00000000	
          0.91450000	          0.00000000	          0.00000000	          0.00000000	          1.33594800	          0.00000000	         -0.09988200	          0.00000000	          0.00000000	          0.00000000	         54.78153500	        547.30498400	         23.80064400	          0.95471800	          0.00600000	         -0.23713700	          0.00000000	          3.35037500	          0.00000000	
          0.91500000	          0.00000000	          0.00000000	          0.00000000	          1.33774700	          0.00000000	         -0.09984500	          0.00000000	          0.00000000	          0.00000000	         55.17678400	        547.96504900	         23.82977100	          0.95478900	          0.00600000	         -0.23713500	          0.00000000	          3.34862600	          0.00000000	
          0.91550000	          0.00000000	          0.00000000	          0.00000000	          1.33954500	          0.00000000	         -0.09980800	          0.00000000	          0.00000000	          0.00000000	         55.57192400	        548.61975400	         23.85861400	          0.95486000	          0.00600000	         -0.23713300	          0.00000000	          3.34674000	          0.00000000	
          0.91600000	          0.00000000	          0.00000000	          0.00000000	          1.34134300	          0.00000000	         -0.09977100	          0.00000000	          0.00000000	          0.00000000	         55.96693600	        549.26899500	         23.88716800	          0.95493100	          0.00600000	         -0.23713100	          0.00000000	          3.34471600	          0.00000000	
          0.91650000	          0.00000000	          0.00000000	          0.00000000	          1.34314200	          0.00000000	         -0.09973400	          0.00000000	          0.00000000	          0.00000000	         56.36180200	        549.91266900	         23.91542500	          0.95500200	          0.00600000	         -0.23713000	          0.00000000	          3.34255600	          0.00000000	
          0.91700000	          0.00000000	          0.00000000	          0.00000000	          1.34494000	          0.00000000	         -0.09969700	          0.00000000	          0.00000000	          0.00000000	         56.75650200	        550.55067400	         23.94337900	          0.95507300	          0.00600000	         -0.23712800	          0.00000000	          3.34025900	          0.00000000	
          0.91750000	          0.00000000	          0.00000000	          0.00000000	          1.34673900	          0.00000000	         -0.09966000	          0.00000000	          0.00000000	          0.00000000	         57.15101900	        551.18290500	         23.97102500	          0.95514400	          0.00600000	         -0.23712600	          0.00000000	          3.33782600	          0.00000000	
